<?xml version="1.0" encoding="UTF-8" standalone="no"?>
<svg width="133px" height="87px" viewBox="0 0 133 87" version="1.1" xmlns="http://www.w3.org/2000/svg" xmlns:xlink="http://www.w3.org/1999/xlink">
    <!-- Generator: sketchtool 40.3 (33839) - http://www.bohemiancoding.com/sketch -->
    <title>4578DBE0-1A73-4D7E-9B64-19E0DCF9D086</title>
    <desc>Created with sketchtool.</desc>
    <defs></defs>
    <g id="concept-2" stroke="none" stroke-width="1" fill="none" fill-rule="evenodd">
        <g id="Artboard-Copy-2" transform="translate(-211.000000, -255.000000)">
            <g id="Group-13" transform="translate(212.000000, 255.000000)">
                <g id="Group-12" transform="translate(0.000000, 9.957895)" stroke-width="1.35">
                    <g id="Group-9">
                        <g id="Group-8" transform="translate(0.000000, 0.476500)" stroke="#F54244">
                            <path d="M12.4421883,0.229697507 C16.7406275,-1.13496669 21.5075283,3.85043417 19.5455355,8.06710594 C18.3072009,12.3064541 12.061197,13.4175964 9.42874958,9.91953895 C6.53546963,6.83260414 8.28555006,1.07144452 12.4421883,0.229697507" id="Fill-32"></path>
                            <path d="M3.55271592,15.9972732 C7.34991287,14.4673621 11.5190239,15.1994845 15.4996635,15.0338722 C18.9339108,15.0944186 22.9036181,14.5637467 25.7348442,16.9958445 C27.8876168,18.7274287 27.9748559,21.7596488 28,24.321966 C27.9647983,29.9305269 28.0297356,35.5475464 27.9790101,41.1647886 C28.0297356,42.4280282 27.5279468,44.3677408 25.9945937,44.3049684 C24.1850929,44.7599572 22.9807996,42.7755025 23.0400522,41.1647886 C23.0116285,35.7089295 23.0531709,30.2617516 23.0297759,24.8125704 C22.5804617,24.8192483 21.6838011,24.8326041 21.233831,24.8419532 C21.1568682,40.4682818 21.2747175,56.09973 21.1723919,71.7169321 C21.5672637,75.466138 15.115724,76.3177951 14.8056862,72.4541743 C14.6690335,63.0674699 14.7956286,53.6625125 14.756054,44.2758081 L13.2456586,44.2758081 C13.2568094,52.46672 13.2259806,60.6529573 13.2611823,68.8456499 C13.27124,70.6150756 13.1192821,72.4448252 12.4550405,74.109185 C10.3639257,75.8652549 6.38875217,74.9895572 6.51972016,71.7955089 C6.38875217,56.1711838 6.55054902,40.5357287 6.44363191,24.911181 L5.00189087,24.911181 C4.90918565,30.0916873 5.01151122,35.2721936 4.96537726,40.4524774 C4.96537726,42.1528979 4.1389015,44.8113772 2.00187133,44.3049684 C0.74597801,44.4211641 -0.0695655277,42.9502414 0.0373515742,41.816776 C-0.0232129191,35.2474853 0.000837962691,28.6715167 0.0327600422,22.1046745 C-0.0442027796,19.6073557 1.16599386,16.9486539 3.55271592,15.9972732" id="Fill-33"></path>
                        </g>
                        <g id="Group-8-Copy" transform="translate(50.895649, 0.476500)" stroke="#696969">
                            <path d="M12.4421883,0.229697507 C16.7406275,-1.13496669 21.5075283,3.85043417 19.5455355,8.06710594 C18.3072009,12.3064541 12.061197,13.4175964 9.42874958,9.91953895 C6.53546963,6.83260414 8.28555006,1.07144452 12.4421883,0.229697507" id="Fill-32"></path>
                            <path d="M3.55271592,15.9972732 C7.34991287,14.4673621 11.5190239,15.1994845 15.4996635,15.0338722 C18.9339108,15.0944186 22.9036181,14.5637467 25.7348442,16.9958445 C27.8876168,18.7274287 27.9748559,21.7596488 28,24.321966 C27.9647983,29.9305269 28.0297356,35.5475464 27.9790101,41.1647886 C28.0297356,42.4280282 27.5279468,44.3677408 25.9945937,44.3049684 C24.1850929,44.7599572 22.9807996,42.7755025 23.0400522,41.1647886 C23.0116285,35.7089295 23.0531709,30.2617516 23.0297759,24.8125704 C22.5804617,24.8192483 21.6838011,24.8326041 21.233831,24.8419532 C21.1568682,40.4682818 21.2747175,56.09973 21.1723919,71.7169321 C21.5672637,75.466138 15.115724,76.3177951 14.8056862,72.4541743 C14.6690335,63.0674699 14.7956286,53.6625125 14.756054,44.2758081 L13.2456586,44.2758081 C13.2568094,52.46672 13.2259806,60.6529573 13.2611823,68.8456499 C13.27124,70.6150756 13.1192821,72.4448252 12.4550405,74.109185 C10.3639257,75.8652549 6.38875217,74.9895572 6.51972016,71.7955089 C6.38875217,56.1711838 6.55054902,40.5357287 6.44363191,24.911181 L5.00189087,24.911181 C4.90918565,30.0916873 5.01151122,35.2721936 4.96537726,40.4524774 C4.96537726,42.1528979 4.1389015,44.8113772 2.00187133,44.3049684 C0.74597801,44.4211641 -0.0695655277,42.9502414 0.0373515742,41.816776 C-0.0232129191,35.2474853 0.000837962691,28.6715167 0.0327600422,22.1046745 C-0.0442027796,19.6073557 1.16599386,16.9486539 3.55271592,15.9972732" id="Fill-33"></path>
                        </g>
                        <g id="Group-8-Copy-2" transform="translate(102.689257, 0.476500)" stroke="#696969">
                            <path d="M12.4421883,0.229697507 C16.7406275,-1.13496669 21.5075283,3.85043417 19.5455355,8.06710594 C18.3072009,12.3064541 12.061197,13.4175964 9.42874958,9.91953895 C6.53546963,6.83260414 8.28555006,1.07144452 12.4421883,0.229697507" id="Fill-32"></path>
                            <path d="M3.55271592,15.9972732 C7.34991287,14.4673621 11.5190239,15.1994845 15.4996635,15.0338722 C18.9339108,15.0944186 22.9036181,14.5637467 25.7348442,16.9958445 C27.8876168,18.7274287 27.9748559,21.7596488 28,24.321966 C27.9647983,29.9305269 28.0297356,35.5475464 27.9790101,41.1647886 C28.0297356,42.4280282 27.5279468,44.3677408 25.9945937,44.3049684 C24.1850929,44.7599572 22.9807996,42.7755025 23.0400522,41.1647886 C23.0116285,35.7089295 23.0531709,30.2617516 23.0297759,24.8125704 C22.5804617,24.8192483 21.6838011,24.8326041 21.233831,24.8419532 C21.1568682,40.4682818 21.2747175,56.09973 21.1723919,71.7169321 C21.5672637,75.466138 15.115724,76.3177951 14.8056862,72.4541743 C14.6690335,63.0674699 14.7956286,53.6625125 14.756054,44.2758081 L13.2456586,44.2758081 C13.2568094,52.46672 13.2259806,60.6529573 13.2611823,68.8456499 C13.27124,70.6150756 13.1192821,72.4448252 12.4550405,74.109185 C10.3639257,75.8652549 6.38875217,74.9895572 6.51972016,71.7955089 C6.38875217,56.1711838 6.55054902,40.5357287 6.44363191,24.911181 L5.00189087,24.911181 C4.90918565,30.0916873 5.01151122,35.2721936 4.96537726,40.4524774 C4.96537726,42.1528979 4.1389015,44.8113772 2.00187133,44.3049684 C0.74597801,44.4211641 -0.0695655277,42.9502414 0.0373515742,41.816776 C-0.0232129191,35.2474853 0.000837962691,28.6715167 0.0327600422,22.1046745 C-0.0442027796,19.6073557 1.16599386,16.9486539 3.55271592,15.9972732" id="Fill-33"></path>
                        </g>
                    </g>
                </g>
                <path d="M1.44827586,1 L26.6156812,1" id="Line" stroke="#F54244" stroke-width="1.8" stroke-linecap="round"></path>
            </g>
        </g>
    </g>
</svg>