<?xml version="1.0" encoding="UTF-8"?>
<svg width="163px" height="50px" viewBox="0 0 163 50" version="1.1" xmlns="http://www.w3.org/2000/svg" xmlns:xlink="http://www.w3.org/1999/xlink">
    <!-- Generator: Sketch 40.3 (33839) - http://www.bohemiancoding.com/sketch -->
    <title>contact-us-btn</title>
    <desc>Created with Sketch.</desc>
    <defs></defs>
    <g id="concept-2" stroke="none" stroke-width="1" fill="none" fill-rule="evenodd">
        <g id="Artboard-2" transform="translate(-101.000000, -675.000000)">
            <g id="contact-us-btn" transform="translate(101.000000, 675.000000)">
                <rect id="Rectangle-5-Copy" fill="#F54244" x="0" y="0" width="163" height="50" rx="2.47959184"></rect>
                <path d="M46.2113776,29 L44.0541327,29 C43.1366791,29 42.426903,28.7458444 41.9247832,28.2375255 C41.4226633,27.7292066 41.1716071,27.02253 41.1716071,26.1174745 L41.1716071,19.9246939 C41.1716071,19.0072403 41.4226633,18.2974642 41.9247832,17.7953444 C42.426903,17.2932245 43.1366791,17.0421684 44.0541327,17.0421684 L46.2113776,17.0421684 C47.1164331,17.0421684 47.8231097,17.2932245 48.3314286,17.7953444 C48.8397474,18.2974642 49.0939031,19.0072403 49.0939031,19.9246939 L49.0939031,20.8173469 C49.0939031,21.0405113 48.9823225,21.1520918 48.7591582,21.1520918 L47.587551,21.1520918 C47.3767847,21.1520918 47.2714031,21.0405113 47.2714031,20.8173469 L47.2714031,19.9990816 C47.2714031,19.0816281 46.825081,18.6229082 45.9324235,18.6229082 L44.3144898,18.6229082 C43.4218323,18.6229082 42.9755102,19.0816281 42.9755102,19.9990816 L42.9755102,26.0430867 C42.9755102,26.9605403 43.4218323,27.4192602 44.3144898,27.4192602 L45.9324235,27.4192602 C46.825081,27.4192602 47.2714031,26.9605403 47.2714031,26.0430867 L47.2714031,25.2248214 C47.2714031,25.001657 47.3767847,24.8900765 47.587551,24.8900765 L48.7591582,24.8900765 C48.9823225,24.8900765 49.0939031,25.001657 49.0939031,25.2248214 L49.0939031,26.1174745 C49.0939031,27.02253 48.8397474,27.7292066 48.3314286,28.2375255 C47.8231097,28.7458444 47.1164331,29 46.2113776,29 L46.2113776,29 Z M55.5470408,29 L53.9105102,29 C52.9930566,29 52.2832806,28.7458444 51.7811607,28.2375255 C51.2790409,27.7292066 51.0279847,27.02253 51.0279847,26.1174745 L51.0279847,22.3980867 C51.0279847,21.4806332 51.2790409,20.7708571 51.7811607,20.2687372 C52.2832806,19.7666174 52.9930566,19.5155612 53.9105102,19.5155612 L55.5470408,19.5155612 C56.4520964,19.5155612 57.1618724,19.7666174 57.6763903,20.2687372 C58.1909082,20.7708571 58.4481633,21.4806332 58.4481633,22.3980867 L58.4481633,26.1174745 C58.4481633,27.02253 58.1909082,27.7292066 57.6763903,28.2375255 C57.1618724,28.7458444 56.4520964,29 55.5470408,29 L55.5470408,29 Z M54.1708673,27.4192602 L55.3052806,27.4192602 C56.1979381,27.4192602 56.6442602,26.9667392 56.6442602,26.0616837 L56.6442602,22.4538776 C56.6442602,21.548822 56.1979381,21.096301 55.3052806,21.096301 L54.1708673,21.096301 C53.6997425,21.096301 53.3588021,21.2047821 53.1480357,21.4217474 C52.9372694,21.6387128 52.8318878,21.9827527 52.8318878,22.4538776 L52.8318878,26.0616837 C52.8318878,26.5328085 52.9372694,26.8768484 53.1480357,27.0938138 C53.3588021,27.3107791 53.6997425,27.4192602 54.1708673,27.4192602 L54.1708673,27.4192602 Z M62.0745663,29 L60.9029592,29 C60.6921928,29 60.5868112,28.8946184 60.5868112,28.683852 L60.5868112,19.8317092 C60.5868112,19.6209428 60.6921928,19.5155612 60.9029592,19.5155612 L62.0745663,19.5155612 C62.2853327,19.5155612 62.3907143,19.6209428 62.3907143,19.8317092 L62.3907143,20.501199 L62.465102,20.501199 C62.7626545,19.8441039 63.3887452,19.5155612 64.3433929,19.5155612 L65.1616582,19.5155612 C66.0667137,19.5155612 66.7609925,19.7635179 67.2445153,20.2594388 C67.7280381,20.7553596 67.9697959,21.4682351 67.9697959,22.3980867 L67.9697959,28.683852 C67.9697959,28.8946184 67.8582154,29 67.635051,29 L66.4634439,29 C66.2526775,29 66.1472959,28.8946184 66.1472959,28.683852 L66.1472959,22.4724745 C66.1472959,21.5550209 65.6947749,21.096301 64.7897194,21.096301 L63.9156633,21.096301 C62.8990255,21.096301 62.3907143,21.623209 62.3907143,22.6770408 L62.3907143,28.683852 C62.3907143,28.8946184 62.2853327,29 62.0745663,29 L62.0745663,29 Z M70.4803827,21.096301 L69.5877296,21.096301 C69.4637494,21.096301 69.380064,21.0746048 69.3366709,21.0312117 C69.2932778,20.9878187 69.2715816,20.9103322 69.2715816,20.79875 L69.2715816,19.8317092 C69.2715816,19.6209428 69.3769632,19.5155612 69.5877296,19.5155612 L70.4803827,19.5155612 C70.6043629,19.5155612 70.666352,19.453572 70.666352,19.3295918 L70.666352,17.6558673 C70.666352,17.445101 70.7779326,17.3397194 71.0010969,17.3397194 L72.1727041,17.3397194 C72.3834704,17.3397194 72.488852,17.445101 72.488852,17.6558673 L72.488852,19.3295918 C72.488852,19.453572 72.5570401,19.5155612 72.6934184,19.5155612 L74.4229337,19.5155612 C74.6460981,19.5155612 74.7576786,19.6209428 74.7576786,19.8317092 L74.7576786,20.79875 C74.7576786,20.9971183 74.6460981,21.096301 74.4229337,21.096301 L72.6934184,21.096301 C72.5570401,21.096301 72.488852,21.1582902 72.488852,21.2822704 L72.488852,26.0616837 C72.488852,26.9667392 72.9537709,27.4192602 73.8836224,27.4192602 L74.6089031,27.4192602 C74.8320674,27.4192602 74.943648,27.5246418 74.943648,27.7354082 L74.943648,28.702449 C74.943648,28.9008173 74.8320674,29 74.6089031,29 L73.6046684,29 C72.6872148,29 71.9681404,28.7520433 71.4474235,28.2561224 C70.9267066,27.7602016 70.666352,27.0597239 70.666352,26.1546684 L70.666352,21.2822704 C70.666352,21.1582902 70.6043629,21.096301 70.4803827,21.096301 L70.4803827,21.096301 Z M80.1507908,29 L79.4255102,29 C78.5080566,29 77.7982806,28.7458444 77.2961607,28.2375255 C76.7940409,27.7292066 76.5429847,27.02253 76.5429847,26.1174745 L76.5429847,22.3980867 C76.5429847,21.4806332 76.7940409,20.7708571 77.2961607,20.2687372 C77.7982806,19.7666174 78.5080566,19.5155612 79.4255102,19.5155612 L83.5912245,19.5155612 C83.8143889,19.5155612 83.9259694,19.6209428 83.9259694,19.8317092 L83.9259694,28.683852 C83.9259694,28.8946184 83.8143889,29 83.5912245,29 L82.4196173,29 C82.208851,29 82.1034694,28.8946184 82.1034694,28.683852 L82.1034694,28.0143622 L82.0290816,28.0143622 C81.7315291,28.6714574 81.1054384,29 80.1507908,29 L80.1507908,29 Z M82.1034694,25.8385204 L82.1034694,21.2822704 C82.1034694,21.1582902 82.0352813,21.096301 81.8989031,21.096301 L79.6858673,21.096301 C78.7932098,21.096301 78.3468878,21.5550209 78.3468878,22.4724745 L78.3468878,26.0430867 C78.3468878,26.9605403 78.7932098,27.4192602 79.6858673,27.4192602 L80.5785204,27.4192602 C81.5951581,27.4192602 82.1034694,26.8923522 82.1034694,25.8385204 L82.1034694,25.8385204 Z M92.0156378,27.7354082 L92.0156378,28.702449 C92.0156378,28.9008173 91.9040572,29 91.6808929,29 L88.9471429,29 C88.0296893,29 87.3199132,28.7458444 86.8177934,28.2375255 C86.3156735,27.7292066 86.0646173,27.02253 86.0646173,26.1174745 L86.0646173,22.3980867 C86.0646173,21.4806332 86.3156735,20.7708571 86.8177934,20.2687372 C87.3199132,19.7666174 88.0296893,19.5155612 88.9471429,19.5155612 L91.6808929,19.5155612 C91.9040572,19.5155612 92.0156378,19.6209428 92.0156378,19.8317092 L92.0156378,20.79875 C92.0156378,20.9971183 91.9040572,21.096301 91.6808929,21.096301 L89.2075,21.096301 C88.3148425,21.096301 87.8685204,21.5550209 87.8685204,22.4724745 L87.8685204,26.0430867 C87.8685204,26.9605403 88.3148425,27.4192602 89.2075,27.4192602 L91.6808929,27.4192602 C91.9040572,27.4192602 92.0156378,27.5246418 92.0156378,27.7354082 L92.0156378,27.7354082 Z M94.061301,21.096301 L93.168648,21.096301 C93.0446677,21.096301 92.9609824,21.0746048 92.9175893,21.0312117 C92.8741962,20.9878187 92.8525,20.9103322 92.8525,20.79875 L92.8525,19.8317092 C92.8525,19.6209428 92.9578816,19.5155612 93.168648,19.5155612 L94.061301,19.5155612 C94.1852812,19.5155612 94.2472704,19.453572 94.2472704,19.3295918 L94.2472704,17.6558673 C94.2472704,17.445101 94.3588509,17.3397194 94.5820153,17.3397194 L95.7536224,17.3397194 C95.9643888,17.3397194 96.0697704,17.445101 96.0697704,17.6558673 L96.0697704,19.3295918 C96.0697704,19.453572 96.1379585,19.5155612 96.2743367,19.5155612 L98.003852,19.5155612 C98.2270164,19.5155612 98.3385969,19.6209428 98.3385969,19.8317092 L98.3385969,20.79875 C98.3385969,20.9971183 98.2270164,21.096301 98.003852,21.096301 L96.2743367,21.096301 C96.1379585,21.096301 96.0697704,21.1582902 96.0697704,21.2822704 L96.0697704,26.0616837 C96.0697704,26.9667392 96.5346892,27.4192602 97.4645408,27.4192602 L98.1898214,27.4192602 C98.4129858,27.4192602 98.5245663,27.5246418 98.5245663,27.7354082 L98.5245663,28.702449 C98.5245663,28.9008173 98.4129858,29 98.1898214,29 L97.1855867,29 C96.2681332,29 95.5490587,28.7520433 95.0283418,28.2561224 C94.5076249,27.7602016 94.2472704,27.0597239 94.2472704,26.1546684 L94.2472704,21.2822704 C94.2472704,21.1582902 94.1852812,21.096301 94.061301,21.096301 L94.061301,21.096301 Z M111.170485,17.0421684 L112.342092,17.0421684 C112.565256,17.0421684 112.676837,17.141351 112.676837,17.3397194 L112.676837,26.1174745 C112.676837,27.02253 112.419582,27.7292066 111.905064,28.2375255 C111.390546,28.7458444 110.68077,29 109.775714,29 L107.711454,29 C106.806399,29 106.099722,28.7458444 105.591403,28.2375255 C105.083084,27.7292066 104.828929,27.02253 104.828929,26.1174745 L104.828929,17.3583163 C104.828929,17.14755 104.93431,17.0421684 105.145077,17.0421684 L106.316684,17.0421684 C106.52745,17.0421684 106.632832,17.14755 106.632832,17.3583163 L106.632832,26.0430867 C106.632832,26.9605403 107.079154,27.4192602 107.971811,27.4192602 L109.49676,27.4192602 C110.401816,27.4192602 110.854337,26.9605403 110.854337,26.0430867 L110.854337,17.3583163 C110.854337,17.14755 110.959718,17.0421684 111.170485,17.0421684 L111.170485,17.0421684 Z M118.479082,29 L115.057245,29 C114.846479,29 114.741097,28.8946184 114.741097,28.683852 L114.741097,27.772602 C114.741097,27.5742337 114.846479,27.475051 115.057245,27.475051 L118.181531,27.475051 C118.987402,27.475051 119.390332,27.1960997 119.390332,26.6381888 L119.390332,26.4150255 C119.390332,25.9191047 119.098983,25.5409707 118.516276,25.2806122 L116.489209,24.3135714 C115.85691,24.0160189 115.39819,23.6874763 115.113036,23.3279337 C114.827881,22.9683911 114.685306,22.4972733 114.685306,21.9145663 C114.685306,20.3152216 115.571751,19.5155612 117.344668,19.5155612 L120.43176,19.5155612 C120.630129,19.5155612 120.729311,19.6209428 120.729311,19.8317092 L120.729311,20.7429592 C120.729311,20.9537255 120.630129,21.0591071 120.43176,21.0591071 L117.716607,21.0591071 C117.344667,21.0591071 117.059516,21.1241958 116.861148,21.254375 C116.66278,21.3845542 116.563597,21.5550245 116.563597,21.7657908 L116.563597,21.9703571 C116.563597,22.3670938 116.879742,22.7142332 117.512041,23.0117857 L119.557704,24.0532143 C120.202401,24.3383688 120.645624,24.6762098 120.887385,25.0667474 C121.129147,25.4572851 121.250026,25.9624969 121.250026,26.582398 C121.250026,28.1941407 120.326387,29 118.479082,29 L118.479082,29 Z" id="Contact-Us" fill="#FFFFFF"></path>
            </g>
        </g>
    </g>
</svg>