<?xml version="1.0" encoding="UTF-8" standalone="no"?>
<svg width="91px" height="87px" viewBox="0 0 91 87" version="1.1" xmlns="http://www.w3.org/2000/svg" xmlns:xlink="http://www.w3.org/1999/xlink">
    <!-- Generator: sketchtool 40.3 (33839) - http://www.bohemiancoding.com/sketch -->
    <title>6D8A7DDE-1CD3-461E-97F7-AAFB57F8A144</title>
    <desc>Created with sketchtool.</desc>
    <defs></defs>
    <g id="concept-2" stroke="none" stroke-width="1" fill="none" fill-rule="evenodd">
        <g id="Artboard-2" transform="translate(-147.000000, -146.000000)" stroke-width="2" stroke="#454545">
            <g id="Group-3" transform="translate(147.000000, 147.000000)">
                <g id="Group-2" transform="translate(45.000000, 43.000000) scale(1, -1) translate(-45.000000, -43.000000) ">
                    <g id="shape-anchor">
                        <path d="M43.0561441,1.60230029 C44.1732674,0.790446867 45.9922972,0.796126396 47.1016054,1.60230029 L87.7692334,31.1569192 C88.8863567,31.9687726 89.4469475,33.6890441 89.0193497,35.0054047 L73.485698,82.8257826 C73.0589949,84.139389 71.5840314,85.2042775 70.2128511,85.2042775 L19.9448984,85.2042775 C18.5640581,85.2042775 17.0996493,84.1421432 16.6720515,82.8257826 L1.13839984,35.0054047 C0.711696717,33.6917983 1.27920796,31.9630931 2.38851612,31.1569192 L43.0561441,1.60230029 Z" id="Polygon"></path>
                        <path d="M44.2514124,2.25147929 L72,84" id="Line" stroke-linecap="square"></path>
                        <path d="M17.5,1.25147929 L44.4971742,84" id="Line-Copy" stroke-linecap="square" transform="translate(31.248588, 42.500000) scale(-1, 1) translate(-31.248588, -42.500000) "></path>
                    </g>
                </g>
            </g>
        </g>
    </g>
</svg>