<?xml version="1.0" encoding="UTF-8" standalone="no"?>
<svg width="42px" height="76px" viewBox="0 0 42 76" version="1.1" xmlns="http://www.w3.org/2000/svg" xmlns:xlink="http://www.w3.org/1999/xlink">
    <!-- Generator: sketchtool 40.3 (33839) - http://www.bohemiancoding.com/sketch -->
    <title>4070BBF4-FCDB-4837-89B4-7E73A184DB65</title>
    <desc>Created with sketchtool.</desc>
    <defs>
        <path d="M0,18.5065576 C0,16.0176546 2.01621534,14 4.50832248,14 L33.4916775,14 C35.9815553,14 38,16.0195313 38,18.5065576 L38,56.4934424 C38,58.9823454 35.9837847,61 33.4916775,61 L4.50832248,61 C2.01844473,61 0,58.9804688 0,56.4934424 L0,18.5065576 Z" id="path-1"></path>
        <mask id="mask-2" maskContentUnits="userSpaceOnUse" maskUnits="objectBoundingBox" x="0" y="0" width="38" height="47" fill="white">
            <use xlink:href="#path-1"></use>
        </mask>
        <path d="M10.510389,2.39955022 C11.1969877,1.07431523 12.9691439,0 14.4519236,0 L24.5463137,0 C26.0365645,0 27.801555,1.0749046 28.4878484,2.39955022 L32.7367003,10.6004498 C33.423299,11.9256848 32.7723275,13 31.2812715,13 L7.71696589,13 C6.22655602,13 5.57524371,11.9250954 6.26153708,10.6004498 L10.510389,2.39955022 Z" id="path-3"></path>
        <mask id="mask-4" maskContentUnits="userSpaceOnUse" maskUnits="objectBoundingBox" x="0" y="0" width="27" height="13" fill="white">
            <use xlink:href="#path-3"></use>
        </mask>
        <path d="M10.510389,65.3995502 C11.1969877,64.0743152 12.9691439,63 14.4519236,63 L24.5463137,63 C26.0365645,63 27.801555,64.0749046 28.4878484,65.3995502 L32.7367003,73.6004498 C33.423299,74.9256848 32.7723275,76 31.2812715,76 L7.71696589,76 C6.22655602,76 5.57524371,74.9250954 6.26153708,73.6004498 L10.510389,65.3995502 Z" id="path-5"></path>
        <mask id="mask-6" maskContentUnits="userSpaceOnUse" maskUnits="objectBoundingBox" x="0" y="0" width="27" height="13" fill="white">
            <use xlink:href="#path-5"></use>
        </mask>
    </defs>
    <g id="concept-2" stroke="none" stroke-width="1" fill="none" fill-rule="evenodd">
        <g id="Artboard-Copy-2" transform="translate(-663.000000, -254.000000)">
            <g id="Group-11" transform="translate(663.000000, 254.000000)">
                <g id="Group-10">
                    <use id="Rectangle-3" stroke="#373634" mask="url(#mask-2)" stroke-width="2.7" xlink:href="#path-1"></use>
                    <use id="Rectangle-3-Copy" stroke="#373634" mask="url(#mask-4)" stroke-width="2.7" xlink:href="#path-3"></use>
                    <use id="Rectangle-3-Copy-2" stroke="#373634" mask="url(#mask-6)" stroke-width="2.7" transform="translate(19.500000, 69.500000) scale(1, -1) translate(-19.500000, -69.500000) " xlink:href="#path-5"></use>
                    <path d="M41,22 L41,31" id="Line" stroke="#373634" stroke-width="1.35" stroke-linecap="round"></path>
                    <path d="M41,36 L41,50" id="Line-Copy-5" stroke="#373634" stroke-width="1.35" stroke-linecap="round"></path>
                    <path d="M20.4285714,24.4666667 L26,38" id="Line-Copy-6" stroke="#373634" stroke-width="1.35" stroke-linecap="round" transform="translate(23.000000, 31.000000) scale(-1, 1) translate(-23.000000, -31.000000) "></path>
                    <path d="M19.5,37.4615385 L19.5,48.5384615" id="Line-Copy-8" stroke="#979797" stroke-width="1.35" stroke-linecap="round" opacity="0.193621735" transform="translate(19.500000, 43.000000) scale(-1, 1) translate(-19.500000, -43.000000) "></path>
                    <path d="M18.5625,36.5833333 L12,32.8333333" id="Line-Copy-7" stroke="#979797" stroke-width="1.35" stroke-linecap="round" opacity="0.586345616"></path>
                    <ellipse id="Oval-4" stroke="#373634" stroke-width="0.9" fill="#D8D8D8" cx="19.5" cy="37.5" rx="1.5" ry="1.5"></ellipse>
                </g>
            </g>
        </g>
    </g>
</svg>